<svg width="40" height="41" viewBox="0 0 40 41" fill="none" xmlns="http://www.w3.org/2000/svg">
<path d="M-1.52964e-06 6.00586L-2.62524e-07 34.9941C-1.17781e-07 38.3055 2.62878 41 5.85938 41L34.1406 41C37.3712 41 40 38.3055 40 34.9941L40 22.9023L25.8594 22.9023L25.8594 27.707L18.8281 27.707L18.8281 22.9023L14.0625 22.9023C10.1852 22.9023 7.03125 19.6695 7.03125 15.6953L7.03125 8.4082L14.0625 8.4082L14.0625 15.6953L18.8281 15.6953L18.8281 8.4082L25.8594 9.60937L25.8594 15.6953L40 15.6953L40 6.00586C40 2.6945 37.3712 -1.63355e-06 34.1406 -1.49233e-06L5.85937 -2.56121e-07C2.62878 -1.14908e-07 -1.67439e-06 2.6945 -1.52964e-06 6.00586Z" fill="black"/>
</svg>
