<svg width="30" height="30" viewBox="0 0 30 30" fill="none" xmlns="http://www.w3.org/2000/svg">
<path d="M25.6054 0L4.3945 0C1.97156 0 -3.05176e-05 1.97159 -3.05176e-05 4.39453L-3.05176e-05 25.6055C-3.05176e-05 28.0284 1.97156 30 4.3945 30L13.2422 30L13.2422 19.3945L9.72653 19.3945L9.72653 14.1211H13.2422V10.5469C13.2422 7.63893 15.6077 5.27344 18.5156 5.27344L23.8476 5.27344V10.5469H18.5156L18.5156 14.1211H23.8476L22.9687 19.3945H18.5156V30H25.6054C28.0284 30 30 28.0284 30 25.6055L30 4.39453C30 1.97159 28.0284 0 25.6054 0Z" fill="black"/>
</svg>
