<svg width="40" height="35" viewBox="0 0 40 35" fill="none" xmlns="http://www.w3.org/2000/svg">
<path d="M-7.64949e-07 17.5C-3.42315e-07 27.1688 9.18247 35 20.5075 35C29.57 35 37.2551 29.9862 39.9646 23.0344C40.1577 22.1594 39.5229 21.8385 38.9785 21.8385C38.4916 21.8385 37.2012 21.8531 35.4916 21.8604C36.7281 26.7283 32.7404 27.755 32.7404 27.755C30.3735 28.5512 29.7404 29.7019 29.7404 29.7019C28.4691 31.2871 28.4952 29.5794 28.4952 29.5794C28.6378 27.8221 30.6082 26.899 30.6082 26.899C33.7438 25.3385 32.8378 22.8025 32.3143 21.8021C30.9874 21.6446 30.0848 21.194 29.5717 20.6937C29.0587 24.5802 27.2952 28.665 19.438 28.665C17.1997 28.665 15.3702 27.9869 13.9354 26.864C13.4172 27.0608 11.332 27.6515 8.5077 26.7108C8.5077 26.7108 7.95814 25.2452 10.6103 21.8983C10.1546 20.4983 9.92855 19.0108 9.91811 17.5233C9.92855 16.0358 10.1546 14.5483 10.6103 13.1483C7.95814 9.82333 8.5077 8.35771 8.5077 8.35771C11.332 7.41709 13.4172 8.00771 13.9354 8.18271C15.3702 7.06708 17.1997 6.38896 19.438 6.38896C27.3161 6.38896 29.05 10.4796 29.5543 14.3733C30.17 13.7608 31.4274 13.1921 33.3491 13.1921C36.0934 13.1921 38.2986 13.214 38.9646 13.214C39.502 13.214 40.1437 12.9077 39.9385 12.0108C37.2464 5.00937 29.5561 -1.29194e-06 20.5075 -8.96412e-07C9.18247 -4.01379e-07 -1.18739e-06 7.83563 -7.64949e-07 17.5Z" fill="#212121"/>
</svg>
