<svg width="40" height="42" viewBox="0 0 40 42" fill="none" xmlns="http://www.w3.org/2000/svg">
<path d="M-1.26217e-06 13.125L-5.73712e-07 28.875C-2.56908e-07 36.1226 5.5975 42 12.5 42L27.5 42C34.4025 42 40 36.1226 40 28.875L40 13.125C40 5.87737 34.4025 -5.31848e-06 27.5 -5.01676e-06L12.5 -4.36109e-06C5.5975 -4.05937e-06 -1.57897e-06 5.87737 -1.26217e-06 13.125ZM27.5 3.93749C32.325 3.93749 36.25 8.05874 36.25 13.125L36.25 28.875C36.25 33.9412 32.325 38.0625 27.5 38.0625L12.5 38.0625C7.675 38.0625 3.75 33.9412 3.75 28.875L3.75 13.125C3.75 8.05875 7.675 3.9375 12.5 3.9375L27.5 3.93749Z" fill="black"/>
<path d="M10 21C10 26.7986 14.4775 31.5 20 31.5C25.5225 31.5 30 26.7986 30 21C30 15.2014 25.5225 10.5 20 10.5C14.4775 10.5 10 15.2014 10 21ZM26.25 21C26.25 24.6172 23.445 27.5625 20 27.5625C16.5525 27.5625 13.75 24.6172 13.75 21C13.75 17.3827 16.5525 14.4375 20 14.4375C23.445 14.4375 26.25 17.3827 26.25 21Z" fill="black"/>
<path d="M10.5825 9.7125C10.5825 8.93979 9.98589 8.31338 9.24997 8.31338C8.51406 8.31338 7.91748 8.93979 7.91748 9.7125C7.91748 10.4852 8.51406 11.1116 9.24997 11.1116C9.98589 11.1116 10.5825 10.4852 10.5825 9.7125Z" fill="black"/>
</svg>
